#!OML:ASF \\sashay\E\Suitcase\Project 1\Capture day 1\Session 1\Male1.ASF
:FULLY-SPECIFIED
:DEGREES
548
root 0.276921 17.6352 -15.9619 5.30482 11.3482 -4.75577
lowerback 6.2577 -1.77011 3.44555
upperback 0.0882856 -1.96499 3.85475
thorax -3.40132 -0.999482 2.23345
lowerneck -14.2563 -2.81239 -2.15889
upperneck 29.2292 -1.17826 -7.26467
head 11.9452 -1.6745 -2.5183
rclavicle -6.04305e-014 5.1684e-014
rhumerus -35.3572 -25.745 -66.5665
rradius 15.6757
rwrist -4.32128
rhand -13.7895 18.3722
rfingers 7.12502
rthumb 12.332 -11.2441
lclavicle -6.04305e-014 5.1684e-014
lhumerus -35.4155 -1.02269 83.474
lradius 32.2369
lwrist -0.522575
lhand -0.779655 42.2066
lfingers 7.12502
lthumb 24.8434 70.6125
rfemur -11.7586 -1.28541 30.1802
rtibia 19.5456
rfoot -12.3025 -4.14275
rtoes 17.2075
lfemur -24.5626 1.38183 -12.7919
ltibia 65.2465
lfoot -12.5962 -5.75718
ltoes -5.10165
549
root 0.282194 17.6248 -15.8486 5.5769 10.9588 -4.45125
lowerback 6.04639 -1.55479 3.23894
upperback 0.208482 -1.71742 3.70853
thorax -3.15903 -0.873102 2.16393
lowerneck -14.8408 -2.8932 -1.80245
upperneck 29.5455 -1.25067 -7.57997
head 12.181 -1.72101 -2.73684
rclavicle 1.78906e-015 -2.3059e-014
rhumerus -36.0124 -25.652 -66.4704
rradius 15.8239
rwrist -4.51725
rhand -13.9045 17.8128
rfingers 7.12502
rthumb 12.2212 -11.8101
lclavicle 1.78906e-015 -2.3059e-014
lhumerus -35.3097 -0.537663 83.1354
lradius 31.9295
lwrist -0.505954
lhand -0.944846 41.3122
lfingers 7.12502
lthumb 24.6851 69.7399
rfemur -11.8517 -1.42552 29.9511
rtibia 19.9645
rfoot -12.5691 -3.83982
rtoes 16.0634
lfemur -25.157 1.3634 -13.2301
ltibia 64.3644
lfoot -12.9266 -5.0365
ltoes -4.94594
550
root 0.283692 17.6095 -15.7392 5.49863 11.0812 -4.83485
lowerback 6.35968 -1.65761 3.69277
upperback 0.193469 -1.79559 3.8539
thorax -3.35937 -0.918267 2.07959
lowerneck -14.7943 -2.67826 -1.81265
upperneck 29.6895 -0.890237 -7.70154
head 12.2448 -1.57865 -2.73492
rclavicle 1.11319e-014 4.77083e-015
rhumerus -36.5593 -26.1498 -65.807
rradius 15.1988
rwrist -3.61549
rhand -13.7926 19.0202
rfingers 7.12502
rthumb 12.3291 -10.5963
lclavicle 1.11319e-014 4.77083e-015
lhumerus -35.6447 0.108456 82.8022
lradius 31.7521
lwrist -0.493417
lhand -1.52263 40.9034
lfingers 7.12502
lthumb 24.1312 69.4057
rfemur -11.7079 -1.11764 30.4598
rtibia 20.4477
rfoot -13.1242 -4.41884
rtoes 17.0663
lfemur -25.6016 1.05877 -12.7999
ltibia 63.5673
lfoot -13.9927 -4.66435
ltoes -7.22658
551
root 0.279404 17.596 -15.6349 5.70367 11.0647 -4.75869
lowerback 6.13433 -1.50134 3.56323
upperback 0.359306 -1.62017 3.8508
thorax -3.05866 -0.826748 2.12094
lowerneck -14.5154 -2.672 -1.67712
upperneck 29.32 -0.931963 -7.77008
head 12.0337 -1.57815 -2.76706
rclavicle 5.56597e-015 -5.725e-014
rhumerus -37.036 -25.9065 -65.7581
rradius 15.3179
rwrist -4.30781
rhand -13.6886 18.967
rfingers 7.12502
rthumb 12.4293 -10.6434
lclavicle 5.56597e-015 -5.725e-014
lhumerus -35.8634 0.165083 82.7161
lradius 32.2406
lwrist -0.542579
lhand -1.50515 41.7216
lfingers 7.12502
lthumb 24.1479 70.2217
rfemur -11.7246 -0.725162 30.5136
rtibia 20.9333
rfoot -13.7187 -4.94203
rtoes 17.7405
lfemur -26.3648 0.681836 -12.9078
ltibia 62.6059
lfoot -14.4232 -4.53001
ltoes -6.35554
552
root 0.289442 17.5847 -15.531 6.0878 10.7358 -4.60501
lowerback 5.94558 -1.42359 3.62532
upperback 0.416917 -1.53077 3.75645
thorax -2.89813 -0.78253 1.97331
lowerneck -14.6243 -2.54698 -1.45902
upperneck 29.128 -0.717389 -8.10579
head 11.9854 -1.49876 -2.89626
rclavicle -2.59414e-014 -1.11319e-014
rhumerus -37.5421 -26.9798 -64.9587
rradius 14.7271
rwrist -2.91488
rhand -13.6585 18.7048
rfingers 7.12502
rthumb 12.4584 -10.9039
lclavicle -2.59414e-014 -1.11319e-014
lhumerus -35.5807 0.852524 82.2198
lradius 31.5636
lwrist -0.315832
lhand -1.50042 41.6361
lfingers 7.12502
lthumb 24.1525 70.1355
rfemur -11.9787 -0.467635 30.3779
rtibia 21.421
rfoot -14.2509 -4.93447
rtoes 17.2088
lfemur -27.1055 0.507407 -13.1853
ltibia 61.6495
lfoot -15.1598 -3.54276
ltoes -7.23718
553
root 0.280383 17.5652 -15.4139 5.84032 11.0371 -4.61817
lowerback 6.31738 -1.49136 3.60063
upperback 0.410063 -1.59715 3.78476
thorax -3.11181 -0.816212 2.03406
lowerneck -14.1273 -2.56885 -1.2727
upperneck 29.0161 -0.731381 -8.4254
head 11.8334 -1.51358 -3.03369
rclavicle 7.65321e-015 -5.32743e-014
rhumerus -38.3932 -25.4746 -65.4609
rradius 15.3172
rwrist -4.731
rhand -13.9486 17.9804
rfingers 7.12502
rthumb 12.1786 -11.6451
lclavicle 7.65321e-015 -5.32743e-014
lhumerus -36.2541 1.29267 81.9213
lradius 31.7513
lwrist -0.60644
lhand -1.27586 40.9945
lfingers 7.12502
lthumb 24.3678 69.4653
rfemur -11.3952 -0.229358 30.5564
rtibia 21.7396
rfoot -15.0823 -5.61768
rtoes 17.0877
lfemur -27.1974 -0.0683011 -13.0744
ltibia 60.5714
lfoot -15.7436 -3.2114
ltoes -8.24428
